<?xml version="1.0" encoding="utf-8"?>
<svg xmlns="http://www.w3.org/2000/svg" xmlns:xlink="http://www.w3.org/1999/xlink" style="margin: auto; background: none; display: block; shape-rendering: auto;" width="30px" height="30px" viewBox="0 0 100 100" preserveAspectRatio="xMidYMid">
<g transform="rotate(0 50 50)">
  <rect x="42.5" y="6.5" rx="7.5" ry="7.5" width="15" height="15" fill="#ffffff">
    <animate attributeName="opacity" values="1;0" keyTimes="0;1" dur="3.571428571428571s" begin="-3.535714285714285s" repeatCount="indefinite"></animate>
  </rect>
</g><g transform="rotate(3.6 50 50)">
  <rect x="42.5" y="6.5" rx="7.5" ry="7.5" width="15" height="15" fill="#ffffff">
    <animate attributeName="opacity" values="1;0" keyTimes="0;1" dur="3.571428571428571s" begin="-3.4999999999999996s" repeatCount="indefinite"></animate>
  </rect>
</g><g transform="rotate(7.2 50 50)">
  <rect x="42.5" y="6.5" rx="7.5" ry="7.5" width="15" height="15" fill="#ffffff">
    <animate attributeName="opacity" values="1;0" keyTimes="0;1" dur="3.571428571428571s" begin="-3.464285714285714s" repeatCount="indefinite"></animate>
  </rect>
</g><g transform="rotate(10.8 50 50)">
  <rect x="42.5" y="6.5" rx="7.5" ry="7.5" width="15" height="15" fill="#ffffff">
    <animate attributeName="opacity" values="1;0" keyTimes="0;1" dur="3.571428571428571s" begin="-3.428571428571428s" repeatCount="indefinite"></animate>
  </rect>
</g><g transform="rotate(14.4 50 50)">
  <rect x="42.5" y="6.5" rx="7.5" ry="7.5" width="15" height="15" fill="#ffffff">
    <animate attributeName="opacity" values="1;0" keyTimes="0;1" dur="3.571428571428571s" begin="-3.3928571428571423s" repeatCount="indefinite"></animate>
  </rect>
</g><g transform="rotate(18 50 50)">
  <rect x="42.5" y="6.5" rx="7.5" ry="7.5" width="15" height="15" fill="#ffffff">
    <animate attributeName="opacity" values="1;0" keyTimes="0;1" dur="3.571428571428571s" begin="-3.3571428571428568s" repeatCount="indefinite"></animate>
  </rect>
</g><g transform="rotate(21.6 50 50)">
  <rect x="42.5" y="6.5" rx="7.5" ry="7.5" width="15" height="15" fill="#ffffff">
    <animate attributeName="opacity" values="1;0" keyTimes="0;1" dur="3.571428571428571s" begin="-3.321428571428571s" repeatCount="indefinite"></animate>
  </rect>
</g><g transform="rotate(25.2 50 50)">
  <rect x="42.5" y="6.5" rx="7.5" ry="7.5" width="15" height="15" fill="#ffffff">
    <animate attributeName="opacity" values="1;0" keyTimes="0;1" dur="3.571428571428571s" begin="-3.285714285714285s" repeatCount="indefinite"></animate>
  </rect>
</g><g transform="rotate(28.8 50 50)">
  <rect x="42.5" y="6.5" rx="7.5" ry="7.5" width="15" height="15" fill="#ffffff">
    <animate attributeName="opacity" values="1;0" keyTimes="0;1" dur="3.571428571428571s" begin="-3.2499999999999996s" repeatCount="indefinite"></animate>
  </rect>
</g><g transform="rotate(32.4 50 50)">
  <rect x="42.5" y="6.5" rx="7.5" ry="7.5" width="15" height="15" fill="#ffffff">
    <animate attributeName="opacity" values="1;0" keyTimes="0;1" dur="3.571428571428571s" begin="-3.214285714285714s" repeatCount="indefinite"></animate>
  </rect>
</g><g transform="rotate(36 50 50)">
  <rect x="42.5" y="6.5" rx="7.5" ry="7.5" width="15" height="15" fill="#ffffff">
    <animate attributeName="opacity" values="1;0" keyTimes="0;1" dur="3.571428571428571s" begin="-3.1785714285714284s" repeatCount="indefinite"></animate>
  </rect>
</g><g transform="rotate(39.6 50 50)">
  <rect x="42.5" y="6.5" rx="7.5" ry="7.5" width="15" height="15" fill="#ffffff">
    <animate attributeName="opacity" values="1;0" keyTimes="0;1" dur="3.571428571428571s" begin="-3.1428571428571423s" repeatCount="indefinite"></animate>
  </rect>
</g><g transform="rotate(43.2 50 50)">
  <rect x="42.5" y="6.5" rx="7.5" ry="7.5" width="15" height="15" fill="#ffffff">
    <animate attributeName="opacity" values="1;0" keyTimes="0;1" dur="3.571428571428571s" begin="-3.1071428571428568s" repeatCount="indefinite"></animate>
  </rect>
</g><g transform="rotate(46.8 50 50)">
  <rect x="42.5" y="6.5" rx="7.5" ry="7.5" width="15" height="15" fill="#ffffff">
    <animate attributeName="opacity" values="1;0" keyTimes="0;1" dur="3.571428571428571s" begin="-3.071428571428571s" repeatCount="indefinite"></animate>
  </rect>
</g><g transform="rotate(50.4 50 50)">
  <rect x="42.5" y="6.5" rx="7.5" ry="7.5" width="15" height="15" fill="#ffffff">
    <animate attributeName="opacity" values="1;0" keyTimes="0;1" dur="3.571428571428571s" begin="-3.035714285714285s" repeatCount="indefinite"></animate>
  </rect>
</g><g transform="rotate(54 50 50)">
  <rect x="42.5" y="6.5" rx="7.5" ry="7.5" width="15" height="15" fill="#ffffff">
    <animate attributeName="opacity" values="1;0" keyTimes="0;1" dur="3.571428571428571s" begin="-2.9999999999999996s" repeatCount="indefinite"></animate>
  </rect>
</g><g transform="rotate(57.6 50 50)">
  <rect x="42.5" y="6.5" rx="7.5" ry="7.5" width="15" height="15" fill="#ffffff">
    <animate attributeName="opacity" values="1;0" keyTimes="0;1" dur="3.571428571428571s" begin="-2.964285714285714s" repeatCount="indefinite"></animate>
  </rect>
</g><g transform="rotate(61.2 50 50)">
  <rect x="42.5" y="6.5" rx="7.5" ry="7.5" width="15" height="15" fill="#ffffff">
    <animate attributeName="opacity" values="1;0" keyTimes="0;1" dur="3.571428571428571s" begin="-2.9285714285714284s" repeatCount="indefinite"></animate>
  </rect>
</g><g transform="rotate(64.8 50 50)">
  <rect x="42.5" y="6.5" rx="7.5" ry="7.5" width="15" height="15" fill="#ffffff">
    <animate attributeName="opacity" values="1;0" keyTimes="0;1" dur="3.571428571428571s" begin="-2.8928571428571423s" repeatCount="indefinite"></animate>
  </rect>
</g><g transform="rotate(68.4 50 50)">
  <rect x="42.5" y="6.5" rx="7.5" ry="7.5" width="15" height="15" fill="#ffffff">
    <animate attributeName="opacity" values="1;0" keyTimes="0;1" dur="3.571428571428571s" begin="-2.8571428571428568s" repeatCount="indefinite"></animate>
  </rect>
</g><g transform="rotate(72 50 50)">
  <rect x="42.5" y="6.5" rx="7.5" ry="7.5" width="15" height="15" fill="#ffffff">
    <animate attributeName="opacity" values="1;0" keyTimes="0;1" dur="3.571428571428571s" begin="-2.821428571428571s" repeatCount="indefinite"></animate>
  </rect>
</g><g transform="rotate(75.6 50 50)">
  <rect x="42.5" y="6.5" rx="7.5" ry="7.5" width="15" height="15" fill="#ffffff">
    <animate attributeName="opacity" values="1;0" keyTimes="0;1" dur="3.571428571428571s" begin="-2.785714285714285s" repeatCount="indefinite"></animate>
  </rect>
</g><g transform="rotate(79.2 50 50)">
  <rect x="42.5" y="6.5" rx="7.5" ry="7.5" width="15" height="15" fill="#ffffff">
    <animate attributeName="opacity" values="1;0" keyTimes="0;1" dur="3.571428571428571s" begin="-2.7499999999999996s" repeatCount="indefinite"></animate>
  </rect>
</g><g transform="rotate(82.8 50 50)">
  <rect x="42.5" y="6.5" rx="7.5" ry="7.5" width="15" height="15" fill="#ffffff">
    <animate attributeName="opacity" values="1;0" keyTimes="0;1" dur="3.571428571428571s" begin="-2.714285714285714s" repeatCount="indefinite"></animate>
  </rect>
</g><g transform="rotate(86.4 50 50)">
  <rect x="42.5" y="6.5" rx="7.5" ry="7.5" width="15" height="15" fill="#ffffff">
    <animate attributeName="opacity" values="1;0" keyTimes="0;1" dur="3.571428571428571s" begin="-2.6785714285714284s" repeatCount="indefinite"></animate>
  </rect>
</g><g transform="rotate(90 50 50)">
  <rect x="42.5" y="6.5" rx="7.5" ry="7.5" width="15" height="15" fill="#ffffff">
    <animate attributeName="opacity" values="1;0" keyTimes="0;1" dur="3.571428571428571s" begin="-2.6428571428571423s" repeatCount="indefinite"></animate>
  </rect>
</g><g transform="rotate(93.6 50 50)">
  <rect x="42.5" y="6.5" rx="7.5" ry="7.5" width="15" height="15" fill="#ffffff">
    <animate attributeName="opacity" values="1;0" keyTimes="0;1" dur="3.571428571428571s" begin="-2.6071428571428568s" repeatCount="indefinite"></animate>
  </rect>
</g><g transform="rotate(97.2 50 50)">
  <rect x="42.5" y="6.5" rx="7.5" ry="7.5" width="15" height="15" fill="#ffffff">
    <animate attributeName="opacity" values="1;0" keyTimes="0;1" dur="3.571428571428571s" begin="-2.571428571428571s" repeatCount="indefinite"></animate>
  </rect>
</g><g transform="rotate(100.8 50 50)">
  <rect x="42.5" y="6.5" rx="7.5" ry="7.5" width="15" height="15" fill="#ffffff">
    <animate attributeName="opacity" values="1;0" keyTimes="0;1" dur="3.571428571428571s" begin="-2.5357142857142856s" repeatCount="indefinite"></animate>
  </rect>
</g><g transform="rotate(104.4 50 50)">
  <rect x="42.5" y="6.5" rx="7.5" ry="7.5" width="15" height="15" fill="#ffffff">
    <animate attributeName="opacity" values="1;0" keyTimes="0;1" dur="3.571428571428571s" begin="-2.4999999999999996s" repeatCount="indefinite"></animate>
  </rect>
</g><g transform="rotate(108 50 50)">
  <rect x="42.5" y="6.5" rx="7.5" ry="7.5" width="15" height="15" fill="#ffffff">
    <animate attributeName="opacity" values="1;0" keyTimes="0;1" dur="3.571428571428571s" begin="-2.464285714285714s" repeatCount="indefinite"></animate>
  </rect>
</g><g transform="rotate(111.6 50 50)">
  <rect x="42.5" y="6.5" rx="7.5" ry="7.5" width="15" height="15" fill="#ffffff">
    <animate attributeName="opacity" values="1;0" keyTimes="0;1" dur="3.571428571428571s" begin="-2.4285714285714284s" repeatCount="indefinite"></animate>
  </rect>
</g><g transform="rotate(115.2 50 50)">
  <rect x="42.5" y="6.5" rx="7.5" ry="7.5" width="15" height="15" fill="#ffffff">
    <animate attributeName="opacity" values="1;0" keyTimes="0;1" dur="3.571428571428571s" begin="-2.3928571428571423s" repeatCount="indefinite"></animate>
  </rect>
</g><g transform="rotate(118.8 50 50)">
  <rect x="42.5" y="6.5" rx="7.5" ry="7.5" width="15" height="15" fill="#ffffff">
    <animate attributeName="opacity" values="1;0" keyTimes="0;1" dur="3.571428571428571s" begin="-2.3571428571428568s" repeatCount="indefinite"></animate>
  </rect>
</g><g transform="rotate(122.4 50 50)">
  <rect x="42.5" y="6.5" rx="7.5" ry="7.5" width="15" height="15" fill="#ffffff">
    <animate attributeName="opacity" values="1;0" keyTimes="0;1" dur="3.571428571428571s" begin="-2.321428571428571s" repeatCount="indefinite"></animate>
  </rect>
</g><g transform="rotate(126 50 50)">
  <rect x="42.5" y="6.5" rx="7.5" ry="7.5" width="15" height="15" fill="#ffffff">
    <animate attributeName="opacity" values="1;0" keyTimes="0;1" dur="3.571428571428571s" begin="-2.2857142857142856s" repeatCount="indefinite"></animate>
  </rect>
</g><g transform="rotate(129.6 50 50)">
  <rect x="42.5" y="6.5" rx="7.5" ry="7.5" width="15" height="15" fill="#ffffff">
    <animate attributeName="opacity" values="1;0" keyTimes="0;1" dur="3.571428571428571s" begin="-2.2499999999999996s" repeatCount="indefinite"></animate>
  </rect>
</g><g transform="rotate(133.2 50 50)">
  <rect x="42.5" y="6.5" rx="7.5" ry="7.5" width="15" height="15" fill="#ffffff">
    <animate attributeName="opacity" values="1;0" keyTimes="0;1" dur="3.571428571428571s" begin="-2.214285714285714s" repeatCount="indefinite"></animate>
  </rect>
</g><g transform="rotate(136.8 50 50)">
  <rect x="42.5" y="6.5" rx="7.5" ry="7.5" width="15" height="15" fill="#ffffff">
    <animate attributeName="opacity" values="1;0" keyTimes="0;1" dur="3.571428571428571s" begin="-2.1785714285714284s" repeatCount="indefinite"></animate>
  </rect>
</g><g transform="rotate(140.4 50 50)">
  <rect x="42.5" y="6.5" rx="7.5" ry="7.5" width="15" height="15" fill="#ffffff">
    <animate attributeName="opacity" values="1;0" keyTimes="0;1" dur="3.571428571428571s" begin="-2.142857142857143s" repeatCount="indefinite"></animate>
  </rect>
</g><g transform="rotate(144 50 50)">
  <rect x="42.5" y="6.5" rx="7.5" ry="7.5" width="15" height="15" fill="#ffffff">
    <animate attributeName="opacity" values="1;0" keyTimes="0;1" dur="3.571428571428571s" begin="-2.1071428571428568s" repeatCount="indefinite"></animate>
  </rect>
</g><g transform="rotate(147.6 50 50)">
  <rect x="42.5" y="6.5" rx="7.5" ry="7.5" width="15" height="15" fill="#ffffff">
    <animate attributeName="opacity" values="1;0" keyTimes="0;1" dur="3.571428571428571s" begin="-2.071428571428571s" repeatCount="indefinite"></animate>
  </rect>
</g><g transform="rotate(151.2 50 50)">
  <rect x="42.5" y="6.5" rx="7.5" ry="7.5" width="15" height="15" fill="#ffffff">
    <animate attributeName="opacity" values="1;0" keyTimes="0;1" dur="3.571428571428571s" begin="-2.0357142857142856s" repeatCount="indefinite"></animate>
  </rect>
</g><g transform="rotate(154.8 50 50)">
  <rect x="42.5" y="6.5" rx="7.5" ry="7.5" width="15" height="15" fill="#ffffff">
    <animate attributeName="opacity" values="1;0" keyTimes="0;1" dur="3.571428571428571s" begin="-1.9999999999999998s" repeatCount="indefinite"></animate>
  </rect>
</g><g transform="rotate(158.4 50 50)">
  <rect x="42.5" y="6.5" rx="7.5" ry="7.5" width="15" height="15" fill="#ffffff">
    <animate attributeName="opacity" values="1;0" keyTimes="0;1" dur="3.571428571428571s" begin="-1.964285714285714s" repeatCount="indefinite"></animate>
  </rect>
</g><g transform="rotate(162 50 50)">
  <rect x="42.5" y="6.5" rx="7.5" ry="7.5" width="15" height="15" fill="#ffffff">
    <animate attributeName="opacity" values="1;0" keyTimes="0;1" dur="3.571428571428571s" begin="-1.9285714285714284s" repeatCount="indefinite"></animate>
  </rect>
</g><g transform="rotate(165.6 50 50)">
  <rect x="42.5" y="6.5" rx="7.5" ry="7.5" width="15" height="15" fill="#ffffff">
    <animate attributeName="opacity" values="1;0" keyTimes="0;1" dur="3.571428571428571s" begin="-1.8928571428571426s" repeatCount="indefinite"></animate>
  </rect>
</g><g transform="rotate(169.2 50 50)">
  <rect x="42.5" y="6.5" rx="7.5" ry="7.5" width="15" height="15" fill="#ffffff">
    <animate attributeName="opacity" values="1;0" keyTimes="0;1" dur="3.571428571428571s" begin="-1.857142857142857s" repeatCount="indefinite"></animate>
  </rect>
</g><g transform="rotate(172.8 50 50)">
  <rect x="42.5" y="6.5" rx="7.5" ry="7.5" width="15" height="15" fill="#ffffff">
    <animate attributeName="opacity" values="1;0" keyTimes="0;1" dur="3.571428571428571s" begin="-1.8214285714285712s" repeatCount="indefinite"></animate>
  </rect>
</g><g transform="rotate(176.4 50 50)">
  <rect x="42.5" y="6.5" rx="7.5" ry="7.5" width="15" height="15" fill="#ffffff">
    <animate attributeName="opacity" values="1;0" keyTimes="0;1" dur="3.571428571428571s" begin="-1.7857142857142856s" repeatCount="indefinite"></animate>
  </rect>
</g><g transform="rotate(180 50 50)">
  <rect x="42.5" y="6.5" rx="7.5" ry="7.5" width="15" height="15" fill="#ffffff">
    <animate attributeName="opacity" values="1;0" keyTimes="0;1" dur="3.571428571428571s" begin="-1.7499999999999998s" repeatCount="indefinite"></animate>
  </rect>
</g><g transform="rotate(183.6 50 50)">
  <rect x="42.5" y="6.5" rx="7.5" ry="7.5" width="15" height="15" fill="#ffffff">
    <animate attributeName="opacity" values="1;0" keyTimes="0;1" dur="3.571428571428571s" begin="-1.714285714285714s" repeatCount="indefinite"></animate>
  </rect>
</g><g transform="rotate(187.2 50 50)">
  <rect x="42.5" y="6.5" rx="7.5" ry="7.5" width="15" height="15" fill="#ffffff">
    <animate attributeName="opacity" values="1;0" keyTimes="0;1" dur="3.571428571428571s" begin="-1.6785714285714284s" repeatCount="indefinite"></animate>
  </rect>
</g><g transform="rotate(190.8 50 50)">
  <rect x="42.5" y="6.5" rx="7.5" ry="7.5" width="15" height="15" fill="#ffffff">
    <animate attributeName="opacity" values="1;0" keyTimes="0;1" dur="3.571428571428571s" begin="-1.6428571428571426s" repeatCount="indefinite"></animate>
  </rect>
</g><g transform="rotate(194.4 50 50)">
  <rect x="42.5" y="6.5" rx="7.5" ry="7.5" width="15" height="15" fill="#ffffff">
    <animate attributeName="opacity" values="1;0" keyTimes="0;1" dur="3.571428571428571s" begin="-1.607142857142857s" repeatCount="indefinite"></animate>
  </rect>
</g><g transform="rotate(198 50 50)">
  <rect x="42.5" y="6.5" rx="7.5" ry="7.5" width="15" height="15" fill="#ffffff">
    <animate attributeName="opacity" values="1;0" keyTimes="0;1" dur="3.571428571428571s" begin="-1.5714285714285712s" repeatCount="indefinite"></animate>
  </rect>
</g><g transform="rotate(201.6 50 50)">
  <rect x="42.5" y="6.5" rx="7.5" ry="7.5" width="15" height="15" fill="#ffffff">
    <animate attributeName="opacity" values="1;0" keyTimes="0;1" dur="3.571428571428571s" begin="-1.5357142857142856s" repeatCount="indefinite"></animate>
  </rect>
</g><g transform="rotate(205.2 50 50)">
  <rect x="42.5" y="6.5" rx="7.5" ry="7.5" width="15" height="15" fill="#ffffff">
    <animate attributeName="opacity" values="1;0" keyTimes="0;1" dur="3.571428571428571s" begin="-1.4999999999999998s" repeatCount="indefinite"></animate>
  </rect>
</g><g transform="rotate(208.8 50 50)">
  <rect x="42.5" y="6.5" rx="7.5" ry="7.5" width="15" height="15" fill="#ffffff">
    <animate attributeName="opacity" values="1;0" keyTimes="0;1" dur="3.571428571428571s" begin="-1.4642857142857142s" repeatCount="indefinite"></animate>
  </rect>
</g><g transform="rotate(212.4 50 50)">
  <rect x="42.5" y="6.5" rx="7.5" ry="7.5" width="15" height="15" fill="#ffffff">
    <animate attributeName="opacity" values="1;0" keyTimes="0;1" dur="3.571428571428571s" begin="-1.4285714285714284s" repeatCount="indefinite"></animate>
  </rect>
</g><g transform="rotate(216 50 50)">
  <rect x="42.5" y="6.5" rx="7.5" ry="7.5" width="15" height="15" fill="#ffffff">
    <animate attributeName="opacity" values="1;0" keyTimes="0;1" dur="3.571428571428571s" begin="-1.3928571428571426s" repeatCount="indefinite"></animate>
  </rect>
</g><g transform="rotate(219.6 50 50)">
  <rect x="42.5" y="6.5" rx="7.5" ry="7.5" width="15" height="15" fill="#ffffff">
    <animate attributeName="opacity" values="1;0" keyTimes="0;1" dur="3.571428571428571s" begin="-1.357142857142857s" repeatCount="indefinite"></animate>
  </rect>
</g><g transform="rotate(223.2 50 50)">
  <rect x="42.5" y="6.5" rx="7.5" ry="7.5" width="15" height="15" fill="#ffffff">
    <animate attributeName="opacity" values="1;0" keyTimes="0;1" dur="3.571428571428571s" begin="-1.3214285714285712s" repeatCount="indefinite"></animate>
  </rect>
</g><g transform="rotate(226.8 50 50)">
  <rect x="42.5" y="6.5" rx="7.5" ry="7.5" width="15" height="15" fill="#ffffff">
    <animate attributeName="opacity" values="1;0" keyTimes="0;1" dur="3.571428571428571s" begin="-1.2857142857142856s" repeatCount="indefinite"></animate>
  </rect>
</g><g transform="rotate(230.4 50 50)">
  <rect x="42.5" y="6.5" rx="7.5" ry="7.5" width="15" height="15" fill="#ffffff">
    <animate attributeName="opacity" values="1;0" keyTimes="0;1" dur="3.571428571428571s" begin="-1.2499999999999998s" repeatCount="indefinite"></animate>
  </rect>
</g><g transform="rotate(234 50 50)">
  <rect x="42.5" y="6.5" rx="7.5" ry="7.5" width="15" height="15" fill="#ffffff">
    <animate attributeName="opacity" values="1;0" keyTimes="0;1" dur="3.571428571428571s" begin="-1.2142857142857142s" repeatCount="indefinite"></animate>
  </rect>
</g><g transform="rotate(237.6 50 50)">
  <rect x="42.5" y="6.5" rx="7.5" ry="7.5" width="15" height="15" fill="#ffffff">
    <animate attributeName="opacity" values="1;0" keyTimes="0;1" dur="3.571428571428571s" begin="-1.1785714285714284s" repeatCount="indefinite"></animate>
  </rect>
</g><g transform="rotate(241.2 50 50)">
  <rect x="42.5" y="6.5" rx="7.5" ry="7.5" width="15" height="15" fill="#ffffff">
    <animate attributeName="opacity" values="1;0" keyTimes="0;1" dur="3.571428571428571s" begin="-1.1428571428571428s" repeatCount="indefinite"></animate>
  </rect>
</g><g transform="rotate(244.8 50 50)">
  <rect x="42.5" y="6.5" rx="7.5" ry="7.5" width="15" height="15" fill="#ffffff">
    <animate attributeName="opacity" values="1;0" keyTimes="0;1" dur="3.571428571428571s" begin="-1.107142857142857s" repeatCount="indefinite"></animate>
  </rect>
</g><g transform="rotate(248.4 50 50)">
  <rect x="42.5" y="6.5" rx="7.5" ry="7.5" width="15" height="15" fill="#ffffff">
    <animate attributeName="opacity" values="1;0" keyTimes="0;1" dur="3.571428571428571s" begin="-1.0714285714285714s" repeatCount="indefinite"></animate>
  </rect>
</g><g transform="rotate(252 50 50)">
  <rect x="42.5" y="6.5" rx="7.5" ry="7.5" width="15" height="15" fill="#ffffff">
    <animate attributeName="opacity" values="1;0" keyTimes="0;1" dur="3.571428571428571s" begin="-1.0357142857142856s" repeatCount="indefinite"></animate>
  </rect>
</g><g transform="rotate(255.6 50 50)">
  <rect x="42.5" y="6.5" rx="7.5" ry="7.5" width="15" height="15" fill="#ffffff">
    <animate attributeName="opacity" values="1;0" keyTimes="0;1" dur="3.571428571428571s" begin="-0.9999999999999999s" repeatCount="indefinite"></animate>
  </rect>
</g><g transform="rotate(259.2 50 50)">
  <rect x="42.5" y="6.5" rx="7.5" ry="7.5" width="15" height="15" fill="#ffffff">
    <animate attributeName="opacity" values="1;0" keyTimes="0;1" dur="3.571428571428571s" begin="-0.9642857142857142s" repeatCount="indefinite"></animate>
  </rect>
</g><g transform="rotate(262.8 50 50)">
  <rect x="42.5" y="6.5" rx="7.5" ry="7.5" width="15" height="15" fill="#ffffff">
    <animate attributeName="opacity" values="1;0" keyTimes="0;1" dur="3.571428571428571s" begin="-0.9285714285714285s" repeatCount="indefinite"></animate>
  </rect>
</g><g transform="rotate(266.4 50 50)">
  <rect x="42.5" y="6.5" rx="7.5" ry="7.5" width="15" height="15" fill="#ffffff">
    <animate attributeName="opacity" values="1;0" keyTimes="0;1" dur="3.571428571428571s" begin="-0.8928571428571428s" repeatCount="indefinite"></animate>
  </rect>
</g><g transform="rotate(270 50 50)">
  <rect x="42.5" y="6.5" rx="7.5" ry="7.5" width="15" height="15" fill="#ffffff">
    <animate attributeName="opacity" values="1;0" keyTimes="0;1" dur="3.571428571428571s" begin="-0.857142857142857s" repeatCount="indefinite"></animate>
  </rect>
</g><g transform="rotate(273.6 50 50)">
  <rect x="42.5" y="6.5" rx="7.5" ry="7.5" width="15" height="15" fill="#ffffff">
    <animate attributeName="opacity" values="1;0" keyTimes="0;1" dur="3.571428571428571s" begin="-0.8214285714285713s" repeatCount="indefinite"></animate>
  </rect>
</g><g transform="rotate(277.2 50 50)">
  <rect x="42.5" y="6.5" rx="7.5" ry="7.5" width="15" height="15" fill="#ffffff">
    <animate attributeName="opacity" values="1;0" keyTimes="0;1" dur="3.571428571428571s" begin="-0.7857142857142856s" repeatCount="indefinite"></animate>
  </rect>
</g><g transform="rotate(280.8 50 50)">
  <rect x="42.5" y="6.5" rx="7.5" ry="7.5" width="15" height="15" fill="#ffffff">
    <animate attributeName="opacity" values="1;0" keyTimes="0;1" dur="3.571428571428571s" begin="-0.7499999999999999s" repeatCount="indefinite"></animate>
  </rect>
</g><g transform="rotate(284.4 50 50)">
  <rect x="42.5" y="6.5" rx="7.5" ry="7.5" width="15" height="15" fill="#ffffff">
    <animate attributeName="opacity" values="1;0" keyTimes="0;1" dur="3.571428571428571s" begin="-0.7142857142857142s" repeatCount="indefinite"></animate>
  </rect>
</g><g transform="rotate(288 50 50)">
  <rect x="42.5" y="6.5" rx="7.5" ry="7.5" width="15" height="15" fill="#ffffff">
    <animate attributeName="opacity" values="1;0" keyTimes="0;1" dur="3.571428571428571s" begin="-0.6785714285714285s" repeatCount="indefinite"></animate>
  </rect>
</g><g transform="rotate(291.6 50 50)">
  <rect x="42.5" y="6.5" rx="7.5" ry="7.5" width="15" height="15" fill="#ffffff">
    <animate attributeName="opacity" values="1;0" keyTimes="0;1" dur="3.571428571428571s" begin="-0.6428571428571428s" repeatCount="indefinite"></animate>
  </rect>
</g><g transform="rotate(295.2 50 50)">
  <rect x="42.5" y="6.5" rx="7.5" ry="7.5" width="15" height="15" fill="#ffffff">
    <animate attributeName="opacity" values="1;0" keyTimes="0;1" dur="3.571428571428571s" begin="-0.6071428571428571s" repeatCount="indefinite"></animate>
  </rect>
</g><g transform="rotate(298.8 50 50)">
  <rect x="42.5" y="6.5" rx="7.5" ry="7.5" width="15" height="15" fill="#ffffff">
    <animate attributeName="opacity" values="1;0" keyTimes="0;1" dur="3.571428571428571s" begin="-0.5714285714285714s" repeatCount="indefinite"></animate>
  </rect>
</g><g transform="rotate(302.4 50 50)">
  <rect x="42.5" y="6.5" rx="7.5" ry="7.5" width="15" height="15" fill="#ffffff">
    <animate attributeName="opacity" values="1;0" keyTimes="0;1" dur="3.571428571428571s" begin="-0.5357142857142857s" repeatCount="indefinite"></animate>
  </rect>
</g><g transform="rotate(306 50 50)">
  <rect x="42.5" y="6.5" rx="7.5" ry="7.5" width="15" height="15" fill="#ffffff">
    <animate attributeName="opacity" values="1;0" keyTimes="0;1" dur="3.571428571428571s" begin="-0.49999999999999994s" repeatCount="indefinite"></animate>
  </rect>
</g><g transform="rotate(309.6 50 50)">
  <rect x="42.5" y="6.5" rx="7.5" ry="7.5" width="15" height="15" fill="#ffffff">
    <animate attributeName="opacity" values="1;0" keyTimes="0;1" dur="3.571428571428571s" begin="-0.46428571428571425s" repeatCount="indefinite"></animate>
  </rect>
</g><g transform="rotate(313.2 50 50)">
  <rect x="42.5" y="6.5" rx="7.5" ry="7.5" width="15" height="15" fill="#ffffff">
    <animate attributeName="opacity" values="1;0" keyTimes="0;1" dur="3.571428571428571s" begin="-0.4285714285714285s" repeatCount="indefinite"></animate>
  </rect>
</g><g transform="rotate(316.8 50 50)">
  <rect x="42.5" y="6.5" rx="7.5" ry="7.5" width="15" height="15" fill="#ffffff">
    <animate attributeName="opacity" values="1;0" keyTimes="0;1" dur="3.571428571428571s" begin="-0.3928571428571428s" repeatCount="indefinite"></animate>
  </rect>
</g><g transform="rotate(320.4 50 50)">
  <rect x="42.5" y="6.5" rx="7.5" ry="7.5" width="15" height="15" fill="#ffffff">
    <animate attributeName="opacity" values="1;0" keyTimes="0;1" dur="3.571428571428571s" begin="-0.3571428571428571s" repeatCount="indefinite"></animate>
  </rect>
</g><g transform="rotate(324 50 50)">
  <rect x="42.5" y="6.5" rx="7.5" ry="7.5" width="15" height="15" fill="#ffffff">
    <animate attributeName="opacity" values="1;0" keyTimes="0;1" dur="3.571428571428571s" begin="-0.3214285714285714s" repeatCount="indefinite"></animate>
  </rect>
</g><g transform="rotate(327.6 50 50)">
  <rect x="42.5" y="6.5" rx="7.5" ry="7.5" width="15" height="15" fill="#ffffff">
    <animate attributeName="opacity" values="1;0" keyTimes="0;1" dur="3.571428571428571s" begin="-0.2857142857142857s" repeatCount="indefinite"></animate>
  </rect>
</g><g transform="rotate(331.2 50 50)">
  <rect x="42.5" y="6.5" rx="7.5" ry="7.5" width="15" height="15" fill="#ffffff">
    <animate attributeName="opacity" values="1;0" keyTimes="0;1" dur="3.571428571428571s" begin="-0.24999999999999997s" repeatCount="indefinite"></animate>
  </rect>
</g><g transform="rotate(334.8 50 50)">
  <rect x="42.5" y="6.5" rx="7.5" ry="7.5" width="15" height="15" fill="#ffffff">
    <animate attributeName="opacity" values="1;0" keyTimes="0;1" dur="3.571428571428571s" begin="-0.21428571428571425s" repeatCount="indefinite"></animate>
  </rect>
</g><g transform="rotate(338.4 50 50)">
  <rect x="42.5" y="6.5" rx="7.5" ry="7.5" width="15" height="15" fill="#ffffff">
    <animate attributeName="opacity" values="1;0" keyTimes="0;1" dur="3.571428571428571s" begin="-0.17857142857142855s" repeatCount="indefinite"></animate>
  </rect>
</g><g transform="rotate(342 50 50)">
  <rect x="42.5" y="6.5" rx="7.5" ry="7.5" width="15" height="15" fill="#ffffff">
    <animate attributeName="opacity" values="1;0" keyTimes="0;1" dur="3.571428571428571s" begin="-0.14285714285714285s" repeatCount="indefinite"></animate>
  </rect>
</g><g transform="rotate(345.6 50 50)">
  <rect x="42.5" y="6.5" rx="7.5" ry="7.5" width="15" height="15" fill="#ffffff">
    <animate attributeName="opacity" values="1;0" keyTimes="0;1" dur="3.571428571428571s" begin="-0.10714285714285712s" repeatCount="indefinite"></animate>
  </rect>
</g><g transform="rotate(349.2 50 50)">
  <rect x="42.5" y="6.5" rx="7.5" ry="7.5" width="15" height="15" fill="#ffffff">
    <animate attributeName="opacity" values="1;0" keyTimes="0;1" dur="3.571428571428571s" begin="-0.07142857142857142s" repeatCount="indefinite"></animate>
  </rect>
</g><g transform="rotate(352.8 50 50)">
  <rect x="42.5" y="6.5" rx="7.5" ry="7.5" width="15" height="15" fill="#ffffff">
    <animate attributeName="opacity" values="1;0" keyTimes="0;1" dur="3.571428571428571s" begin="-0.03571428571428571s" repeatCount="indefinite"></animate>
  </rect>
</g><g transform="rotate(356.4 50 50)">
  <rect x="42.5" y="6.5" rx="7.5" ry="7.5" width="15" height="15" fill="#ffffff">
    <animate attributeName="opacity" values="1;0" keyTimes="0;1" dur="3.571428571428571s" begin="0s" repeatCount="indefinite"></animate>
  </rect>
</g>
<!-- [ldio] generated by https://loading.io/ --></svg>